<svg width="205" height="150" viewBox="0 0 205 150" fill="none" xmlns="http://www.w3.org/2000/svg">
<path d="M180.192 67.4918C173.242 64.0173 160.212 63.9771 159.661 63.9771C158.009 63.9771 156.669 65.3166 156.669 66.9688C156.669 68.6211 158.009 69.9606 159.661 69.9606C163.023 69.961 172.785 70.4788 177.516 72.8438C177.946 73.0588 178.402 73.1602 178.852 73.1602C179.949 73.1602 181.006 72.5538 181.53 71.5059C182.269 70.028 181.67 68.2309 180.192 67.4918Z" fill="#337FF7"/>
<path d="M195.108 110.087L182.752 106.557C182.218 106.404 181.846 105.91 181.846 105.356V101.231C182.851 100.535 183.81 99.7554 184.706 98.8854C189.05 94.6698 191.443 89.0153 191.443 82.9632V77.2721L192.637 74.883C193.948 72.2603 194.641 69.324 194.641 66.392V50.9745C194.641 49.3222 193.302 47.9827 191.65 47.9827H162.86C152.391 47.9827 143.874 56.5 143.874 66.9688V67.1471C143.874 69.5852 144.45 72.0269 145.54 74.2073L147.072 77.2717V82.1582C147.072 89.9025 150.889 96.851 156.669 101.032L156.67 105.355C156.67 106.021 156.67 106.297 154.199 107.003L148.17 108.726L130.73 102.384C130.793 101.561 130.515 100.724 129.915 100.094L124.342 94.2385V84.4096C124.931 83.9241 125.512 83.4255 126.075 82.8982C133.105 76.3083 137.137 67.0043 137.137 57.3721V49.5225C139.26 44.9028 140.336 40.0142 140.336 34.9797V2.99176C140.336 1.33951 138.997 0 137.344 0H92.56C76.7994 0 63.9775 12.8223 63.9775 28.5825V34.9805C63.9775 40.015 65.0533 44.9036 67.1763 49.5233V56.2771C67.1763 67.4607 72.149 77.5361 79.9718 84.1786V94.239L74.3988 100.094C73.7984 100.725 73.5208 101.562 73.5834 102.385L55.1761 109.078C53.8422 109.563 52.6028 110.22 51.4775 111.016L48.587 109.57C57.1913 105.825 59.917 100.558 60.0479 100.296C60.4691 99.4538 60.4691 98.4621 60.0479 97.62C57.891 93.3063 57.6297 85.3997 57.4199 79.0468C57.3501 76.9318 57.2839 74.9337 57.1574 73.1546C56.1375 58.8045 45.2283 47.9827 31.7813 47.9827C18.3343 47.9827 7.42476 58.8041 6.40517 73.1546C6.27871 74.9341 6.2125 76.9322 6.14269 79.0476C5.93287 85.4001 5.67119 93.3059 3.51472 97.6196C3.09348 98.4617 3.09348 99.4534 3.51472 100.295C3.64556 100.557 6.36567 105.814 14.9871 109.564L6.95844 113.578C2.66626 115.725 0 120.04 0 124.838V146.941C0 148.593 1.33951 149.932 2.99176 149.932C4.64401 149.932 5.98353 148.593 5.98353 146.941V124.838C5.98353 122.32 7.38248 120.056 9.63428 118.93L19.632 113.932L23.1096 117.236C25.5413 119.547 28.6607 120.702 31.7813 120.702C34.9011 120.702 38.0221 119.546 40.453 117.236L43.9303 113.932L47.1901 115.562C45.6551 118.018 44.7839 120.898 44.7839 123.915V146.941C44.7839 148.594 46.1234 149.933 47.7757 149.933C49.4279 149.933 50.7674 148.594 50.7674 146.941V123.915C50.7674 119.808 53.3607 116.105 57.2209 114.701L76.6282 107.644L84.7072 119.763C85.74 121.313 87.395 122.306 89.2479 122.49C89.4545 122.51 89.66 122.52 89.865 122.52C91.4997 122.52 93.0654 121.877 94.2358 120.707L99.1646 115.778V146.942C99.1646 148.594 100.504 149.934 102.156 149.934C103.809 149.934 105.148 148.594 105.148 146.942V115.778L110.077 120.707C111.247 121.877 112.813 122.521 114.448 122.521C114.652 122.521 114.858 122.511 115.064 122.49C116.918 122.307 118.573 121.313 119.606 119.764L127.685 107.645L147.092 114.702C150.952 116.106 153.545 119.809 153.545 123.916V146.942C153.545 148.595 154.885 149.934 156.537 149.934C158.189 149.934 159.529 148.595 159.529 146.942V123.916C159.529 119.756 157.876 115.855 155.104 112.969L155.843 112.758C156.589 112.545 157.606 112.254 158.627 111.753L166.265 119.392V146.942C166.265 148.595 167.605 149.934 169.257 149.934C170.909 149.934 172.249 148.595 172.249 146.942V119.392L179.835 111.806C180.238 112.011 180.661 112.184 181.107 112.312L193.464 115.842C196.284 116.648 198.254 119.259 198.254 122.193V146.942C198.254 148.595 199.594 149.934 201.246 149.934C202.898 149.934 204.238 148.595 204.238 146.942V122.193C204.238 116.601 200.483 111.623 195.108 110.087ZM19.1932 104.803C13.597 102.789 10.7899 100.104 9.59159 98.6384C10.4085 96.5027 10.9383 94.0566 11.2969 91.4746C12.9468 95.4305 15.7099 98.8076 19.1932 101.217V104.803ZM36.332 112.9C33.7802 115.324 29.7828 115.324 27.2318 112.899L24.4495 110.255C24.919 109.376 25.1771 108.378 25.1771 107.334V104.145C27.2641 104.797 29.4828 105.149 31.7821 105.149C34.0786 105.149 36.2961 104.795 38.3867 104.147L38.3863 107.333C38.3863 108.378 38.644 109.376 39.1139 110.256L36.332 112.9ZM31.7829 99.1654C22.8491 99.1654 15.5815 91.8974 15.5815 82.964C15.5815 81.3117 14.242 79.9722 12.5897 79.9722C12.4222 79.9722 12.2587 79.9894 12.0987 80.0161C12.1075 79.7588 12.1158 79.5011 12.1246 79.2462C12.1912 77.1891 12.2555 75.246 12.3739 73.5794C12.7561 68.2038 14.9042 63.2503 18.4225 59.6306C21.9723 55.9783 26.7168 53.967 31.7821 53.967C36.8474 53.967 41.5915 55.9783 45.1417 59.6306C48.66 63.2503 50.8081 68.2038 51.1903 73.5794C51.3083 75.2456 51.373 77.1883 51.4408 79.245C51.4468 79.4217 51.4527 79.6009 51.4587 79.7788C48.2037 74.7638 43.1767 71.0679 36.6814 68.9809C30.6807 67.053 25.5197 67.1723 25.3019 67.1779C24.5185 67.1998 23.7749 67.5277 23.2312 68.0917L17.8333 73.6899C16.6865 74.8794 16.7208 76.7734 17.9103 77.9203C19.0998 79.0671 20.9938 79.0324 22.1406 77.8433L26.6323 73.1853C30.5004 73.3744 42.945 74.8216 47.7848 85.4791C46.567 93.3326 39.8168 99.1654 31.7829 99.1654ZM44.3694 104.813L44.3698 101.244C47.8503 98.8483 50.6174 95.4775 52.2685 91.4917C52.6271 94.0678 53.1565 96.5083 53.9718 98.6392C52.7803 100.091 49.9601 102.8 44.3694 104.813ZM73.1598 56.2767V48.8539C73.1598 48.4035 73.0581 47.9588 72.8622 47.5531C70.9371 43.5665 69.961 39.3365 69.961 34.9805V28.5829C69.961 16.1216 80.0991 5.98393 92.56 5.98393H134.353V34.9809C134.353 39.3369 133.376 43.5669 131.451 47.5535C131.255 47.9592 131.154 48.4039 131.154 48.8543V57.3728C131.154 65.4749 127.897 72.9899 121.983 78.5334C121.244 79.2251 120.478 79.8737 119.686 80.478C119.668 80.49 119.651 80.5032 119.634 80.5155C114.094 84.7219 107.308 86.7663 100.221 86.3072C85.0463 85.3247 73.1598 72.1338 73.1598 56.2767ZM90.005 116.475C89.9843 116.496 89.936 116.545 89.8383 116.535C89.7409 116.525 89.7026 116.468 89.6863 116.443L80.3819 102.487L83.3761 99.3405L97.4912 108.989L90.005 116.475ZM102.157 104.93L85.9554 93.8556V88.271C90.1474 90.5371 94.8413 91.9544 99.8335 92.2775C100.622 92.3286 101.406 92.3537 102.187 92.3537C107.908 92.3537 113.414 90.9863 118.358 88.3906V93.8556L102.157 104.93ZM114.627 116.444C114.611 116.469 114.573 116.526 114.475 116.536C114.378 116.548 114.33 116.496 114.309 116.476L106.822 108.99L120.937 99.3413L123.932 102.487L114.627 116.444ZM169.257 113.92L162.468 107.131C162.586 106.593 162.653 106.004 162.653 105.354L162.653 104.091C164.537 104.71 166.522 105.077 168.577 105.138C168.808 105.145 169.036 105.149 169.266 105.149C171.537 105.149 173.753 104.805 175.862 104.151V105.356C175.862 105.952 175.937 106.537 176.078 107.099L169.257 113.92ZM180.539 94.5916C177.368 97.6687 173.18 99.2938 168.757 99.1574C160.099 98.8977 153.056 91.2719 153.056 82.159V76.566C153.056 76.1013 152.948 75.6433 152.74 75.2281L150.892 71.5319C150.215 70.1776 149.857 68.6618 149.857 67.1475V66.9692C149.857 59.7994 155.69 53.9666 162.86 53.9666H188.658V66.3924C188.658 68.4005 188.183 70.4113 187.285 72.2076L185.775 75.2281C185.567 75.6437 185.459 76.1013 185.459 76.566V82.9636C185.459 87.3834 183.712 91.5129 180.539 94.5916Z" fill="#337FF7"/>
<path d="M188.45 124.756C186.798 124.756 185.459 126.095 185.459 127.748V146.941C185.459 148.593 186.798 149.932 188.45 149.932C190.103 149.932 191.442 148.593 191.442 146.941V127.748C191.442 126.096 190.103 124.756 188.45 124.756Z" fill="#337FF7"/>
<path d="M15.7874 128.71C14.1351 128.71 12.7956 130.05 12.7956 131.702V146.941C12.7956 148.593 14.1351 149.932 15.7874 149.932C17.4396 149.932 18.7791 148.593 18.7791 146.941V131.702C18.7791 130.05 17.4396 128.71 15.7874 128.71Z" fill="#337FF7"/>
<path d="M126.664 36.0643C115.349 24.7491 91.6744 26.9123 82.0202 28.3675C78.9794 28.8259 76.7726 31.3992 76.7726 34.4863V41.3785C76.7726 43.0308 78.1122 44.3703 79.7644 44.3703C81.4167 44.3703 82.7562 43.0308 82.7562 41.3785V34.4859C82.7562 34.3842 82.8232 34.2972 82.9125 34.2836C86.7687 33.7025 94.4209 32.8057 102.349 33.3343C111.679 33.9554 118.436 36.2973 122.433 40.2951C123.602 41.4635 125.496 41.4635 126.664 40.2951C127.832 39.1267 127.832 37.2323 126.664 36.0643Z" fill="#337FF7"/>
<path d="M66.9692 131.154C65.317 131.154 63.9775 132.493 63.9775 134.146V146.941C63.9775 148.593 65.317 149.933 66.9692 149.933C68.6215 149.933 69.961 148.593 69.961 146.941V134.146C69.961 132.494 68.6215 131.154 66.9692 131.154Z" fill="#337FF7"/>
<path d="M137.344 131.154C135.692 131.154 134.353 132.493 134.353 134.146V146.941C134.353 148.593 135.692 149.933 137.344 149.933C138.997 149.933 140.336 148.593 140.336 146.941V134.146C140.336 132.494 138.997 131.154 137.344 131.154Z" fill="#337FF7"/>
</svg>
