<svg width="163" height="150" viewBox="0 0 163 150" fill="none" xmlns="http://www.w3.org/2000/svg">
<path d="M22.0232 128.655H92.5193C93.6869 128.655 94.6342 127.708 94.6342 126.541C94.6342 125.373 93.6869 124.426 92.5193 124.426H22.0232C20.8556 124.426 19.9083 125.373 19.9083 126.541C19.9083 127.708 20.8556 128.655 22.0232 128.655Z" fill="#337FF7"/>
<path d="M22.0232 139.23H92.5193C93.6869 139.23 94.6342 138.283 94.6342 137.115C94.6342 135.947 93.6869 135 92.5193 135H22.0232C20.8556 135 19.9083 135.947 19.9083 137.115C19.9083 138.283 20.8556 139.23 22.0232 139.23Z" fill="#337FF7"/>
<path d="M94.6342 147.689C94.6342 146.522 93.6869 145.575 92.5193 145.575H22.0232C20.8556 145.575 19.9083 146.522 19.9083 147.689C19.9083 148.857 20.8556 149.804 22.0232 149.804H92.5193C93.6869 149.804 94.6342 148.857 94.6342 147.689Z" fill="#337FF7"/>
<path d="M30.3134 72.9732C30.3134 70.247 28.1035 68.0385 25.3786 68.0385C22.6538 68.0385 20.4439 70.247 20.4439 72.9732V76.8408H30.3134V72.9732Z" fill="#337FF7"/>
<path d="M57.2712 102.219C63.0775 102.226 68.0508 98.0654 69.0683 92.35H45.4742C46.493 98.0654 51.4663 102.226 57.2712 102.219Z" fill="#337FF7"/>
<path d="M94.1124 72.9732C94.1124 70.247 91.9025 68.0385 89.1776 68.0385C86.4528 68.0385 84.2429 70.247 84.2429 72.9732V76.8408H94.1124V72.9732Z" fill="#337FF7"/>
<path d="M106.061 111.384C108.297 111.406 110.45 110.537 112.043 108.969C113.638 107.401 114.543 105.262 114.556 103.026V50.2684L101.432 61.9361C101.041 62.2803 100.537 62.4703 100.016 62.4703C99.7328 62.4703 99.4519 62.407 99.1944 62.2858C98.4454 61.9389 97.9718 61.1816 97.9897 60.3555V46.5275H96.0083C92.5001 46.5275 89.4214 44.7651 88.0197 41.5927H8.48157C6.24552 41.5748 4.09346 42.4492 2.50316 44.0202C0.911494 45.5912 0.011015 47.7309 0 49.9683V103.026C0.0123919 105.261 0.91287 107.399 2.50454 108.968C4.09621 110.536 6.2469 111.405 8.48157 111.384H106.061ZM80.0131 72.9732C80.0131 67.9118 84.1162 63.8087 89.1777 63.8087C94.2391 63.8087 98.3421 67.9118 98.3421 72.9732V78.8469C98.3738 80.0269 97.4582 81.0141 96.2796 81.0706H82.1804C80.9811 81.0238 80.0297 80.0462 80.0131 78.8469V72.9732ZM43.172 88.1202H71.3705C71.924 88.1051 72.461 88.3143 72.8589 88.6999C73.2568 89.0854 73.4826 89.6141 73.4854 90.169C73.4895 99.1242 66.2347 106.387 57.2795 106.391C48.3243 106.396 41.0613 99.1407 41.0571 90.1855C41.0599 89.6293 41.2843 89.0978 41.6822 88.7095C42.0802 88.3212 42.6171 88.1092 43.172 88.1202ZM16.2141 72.9732C16.2141 67.9118 20.3172 63.8087 25.3786 63.8087C30.44 63.8087 34.5431 67.9118 34.5431 72.9732V78.8469C34.5211 80.0489 33.5642 81.0252 32.3635 81.0706H18.2643C17.0953 81.0706 16.2141 80.0159 16.2141 78.8469V72.9732Z" fill="#337FF7"/>
<path d="M37.2983 27.4935C36.9375 27.4825 36.5878 27.623 36.3331 27.8777C36.0783 28.1338 35.9406 28.4835 35.953 28.8442V37.363H78.6032V28.8442C78.6129 28.4821 78.4724 28.1324 78.2149 27.8763C77.9588 27.6216 77.6077 27.4825 77.2456 27.4935H59.2168V12.3933C61.3069 11.4143 62.4387 9.11771 61.943 6.86376C61.4473 4.60981 59.455 3.00024 57.1473 2.98922C54.8397 2.97821 52.8322 4.5685 52.3145 6.81694C51.7968 9.06539 52.9065 11.373 54.987 12.3726V27.4935H37.2983Z" fill="#337FF7"/>
<path d="M157.564 0H96.0083C93.4942 0 91.2925 1.86842 91.2925 4.38123V37.8531C91.3201 38.1932 91.3875 38.5306 91.4949 38.8541C92.0195 40.9084 93.8866 42.3335 96.007 42.2977H100.007C101.216 42.3404 102.182 43.3138 102.219 44.5214V55.6424L116.44 42.8884C116.803 42.529 117.288 42.3184 117.799 42.2977H157.564C158.764 42.3211 159.922 41.8654 160.781 41.031C161.64 40.1952 162.13 39.051 162.141 37.8531V4.38123C162.141 1.86842 160.076 0 157.564 0ZM133.751 10.5744H143.323C144.491 10.5744 145.438 11.5217 145.438 12.6893C145.438 13.8569 144.491 14.8042 143.323 14.8042H133.751C132.584 14.8042 131.636 13.8569 131.636 12.6893C131.636 11.5217 132.584 10.5744 133.751 10.5744ZM133.476 23.9687C133.476 25.1363 132.529 26.0836 131.361 26.0836H107.911C106.744 26.0836 105.797 25.1363 105.797 23.9687C105.797 22.8011 106.744 21.8538 107.911 21.8538H131.361C132.529 21.8538 133.476 22.8011 133.476 23.9687ZM98.4096 10.5744H126.027C127.196 10.5744 128.142 11.5217 128.142 12.6893C128.142 13.8569 127.196 14.8042 126.027 14.8042H98.4096C97.242 14.8042 96.2947 13.8569 96.2947 12.6893C96.2947 11.5217 97.242 10.5744 98.4096 10.5744ZM98.4096 21.8538H100.066C101.234 21.8538 102.181 22.8011 102.181 23.9687C102.181 25.1363 101.234 26.0836 100.066 26.0836H98.4096C97.242 26.0836 96.2947 25.1363 96.2947 23.9687C96.2947 22.8011 97.242 21.8538 98.4096 21.8538ZM122.257 37.363H98.4096C97.242 37.363 96.2947 36.4157 96.2947 35.2481C96.2947 34.0805 97.242 33.1332 98.4096 33.1332H122.257C123.425 33.1332 124.372 34.0805 124.372 35.2481C124.372 36.4157 123.425 37.363 122.257 37.363ZM147.214 37.363H129.986C128.818 37.363 127.871 36.4157 127.871 35.2481C127.871 34.0805 128.818 33.1332 129.986 33.1332H147.214C148.382 33.1332 149.329 34.0805 149.329 35.2481C149.329 36.4157 148.382 37.363 147.214 37.363ZM155.159 37.363H154.811C153.643 37.363 152.696 36.4157 152.696 35.2481C152.696 34.0805 153.643 33.1332 154.811 33.1332H155.159C156.327 33.1332 157.274 34.0805 157.274 35.2481C157.274 36.4157 156.327 37.363 155.159 37.363ZM155.159 26.0836H138.85C137.682 26.0836 136.735 25.1363 136.735 23.9687C136.735 22.8011 137.682 21.8538 138.85 21.8538H155.159C156.327 21.8538 157.274 22.8011 157.274 23.9687C157.274 25.1363 156.327 26.0836 155.159 26.0836ZM155.159 14.8042H150.584C149.416 14.8042 148.469 13.8569 148.469 12.6893C148.469 11.5217 149.416 10.5744 150.584 10.5744H155.159C156.327 10.5744 157.274 11.5217 157.274 12.6893C157.274 13.8569 156.327 14.8042 155.159 14.8042Z" fill="#337FF7"/>
</svg>
