<svg width="150" height="150" viewBox="0 0 150 150" fill="none" xmlns="http://www.w3.org/2000/svg">
<path d="M113.086 67.3828C116.322 67.3828 118.945 64.7595 118.945 61.5234C118.945 58.2874 116.322 55.6641 113.086 55.6641C109.85 55.6641 107.227 58.2874 107.227 61.5234C107.227 64.7595 109.85 67.3828 113.086 67.3828Z" fill="#337FF7"/>
<path d="M126.562 11.7188H118.945V5.85938C118.945 2.62324 116.322 0 113.086 0C109.85 0 107.227 2.62324 107.227 5.85938V11.7188H80.5664V5.85938C80.5664 2.62324 77.9432 0 74.707 0C71.4709 0 68.8477 2.62324 68.8477 5.85938V11.7188H42.4805V5.85938C42.4805 2.62324 39.8572 0 36.6211 0C33.385 0 30.7617 2.62324 30.7617 5.85938V11.7188H23.4375C10.5141 11.7188 0 22.2328 0 35.1562V126.562C0 139.486 10.5141 150 23.4375 150H68.2617C71.4978 150 74.1211 147.377 74.1211 144.141C74.1211 140.904 71.4978 138.281 68.2617 138.281H23.4375C16.9758 138.281 11.7188 133.024 11.7188 126.562V35.1562C11.7188 28.6945 16.9758 23.4375 23.4375 23.4375H30.7617V29.2969C30.7617 32.533 33.385 35.1562 36.6211 35.1562C39.8572 35.1562 42.4805 32.533 42.4805 29.2969V23.4375H68.8477V29.2969C68.8477 32.533 71.4709 35.1562 74.707 35.1562C77.9432 35.1562 80.5664 32.533 80.5664 29.2969V23.4375H107.227V29.2969C107.227 32.533 109.85 35.1562 113.086 35.1562C116.322 35.1562 118.945 32.533 118.945 29.2969V23.4375H126.562C133.024 23.4375 138.281 28.6945 138.281 35.1562V68.5547C138.281 71.7908 140.904 74.4141 144.141 74.4141C147.377 74.4141 150 71.7908 150 68.5547V35.1562C150 22.2328 139.486 11.7188 126.562 11.7188Z" fill="#337FF7"/>
<path d="M114.551 79.1016C95.0039 79.1016 79.1016 95.0039 79.1016 114.551C79.1016 134.098 95.0039 150 114.551 150C134.098 150 150 134.098 150 114.551C150 95.0039 134.098 79.1016 114.551 79.1016ZM114.551 138.281C101.466 138.281 90.8203 127.636 90.8203 114.551C90.8203 101.466 101.466 90.8203 114.551 90.8203C127.636 90.8203 138.281 101.466 138.281 114.551C138.281 127.636 127.636 138.281 114.551 138.281Z" fill="#337FF7"/>
<path d="M123.047 108.691H120.41V102.539C120.41 99.3029 117.787 96.6797 114.551 96.6797C111.315 96.6797 108.691 99.3029 108.691 102.539V114.551C108.691 117.787 111.315 120.41 114.551 120.41H123.047C126.283 120.41 128.906 117.787 128.906 114.551C128.906 111.315 126.283 108.691 123.047 108.691Z" fill="#337FF7"/>
<path d="M87.5977 67.3828C90.8337 67.3828 93.457 64.7595 93.457 61.5234C93.457 58.2874 90.8337 55.6641 87.5977 55.6641C84.3616 55.6641 81.7383 58.2874 81.7383 61.5234C81.7383 64.7595 84.3616 67.3828 87.5977 67.3828Z" fill="#337FF7"/>
<path d="M62.1094 92.8711C65.3454 92.8711 67.9688 90.2478 67.9688 87.0117C67.9688 83.7757 65.3454 81.1523 62.1094 81.1523C58.8733 81.1523 56.25 83.7757 56.25 87.0117C56.25 90.2478 58.8733 92.8711 62.1094 92.8711Z" fill="#337FF7"/>
<path d="M36.6211 67.3828C39.8571 67.3828 42.4805 64.7595 42.4805 61.5234C42.4805 58.2874 39.8571 55.6641 36.6211 55.6641C33.3851 55.6641 30.7617 58.2874 30.7617 61.5234C30.7617 64.7595 33.3851 67.3828 36.6211 67.3828Z" fill="#337FF7"/>
<path d="M36.6211 92.8711C39.8571 92.8711 42.4805 90.2478 42.4805 87.0117C42.4805 83.7757 39.8571 81.1523 36.6211 81.1523C33.3851 81.1523 30.7617 83.7757 30.7617 87.0117C30.7617 90.2478 33.3851 92.8711 36.6211 92.8711Z" fill="#337FF7"/>
<path d="M36.6211 118.359C39.8571 118.359 42.4805 115.736 42.4805 112.5C42.4805 109.264 39.8571 106.641 36.6211 106.641C33.3851 106.641 30.7617 109.264 30.7617 112.5C30.7617 115.736 33.3851 118.359 36.6211 118.359Z" fill="#337FF7"/>
<path d="M62.1094 118.359C65.3454 118.359 67.9688 115.736 67.9688 112.5C67.9688 109.264 65.3454 106.641 62.1094 106.641C58.8733 106.641 56.25 109.264 56.25 112.5C56.25 115.736 58.8733 118.359 62.1094 118.359Z" fill="#337FF7"/>
<path d="M62.1094 67.3828C65.3454 67.3828 67.9688 64.7595 67.9688 61.5234C67.9688 58.2874 65.3454 55.6641 62.1094 55.6641C58.8733 55.6641 56.25 58.2874 56.25 61.5234C56.25 64.7595 58.8733 67.3828 62.1094 67.3828Z" fill="#337FF7"/>
</svg>
