<svg width="96" height="84" viewBox="0 0 96 84" fill="none" xmlns="http://www.w3.org/2000/svg">
<path d="M72.9379 36.4316C72.9379 50.3183 61.6415 61.6147 47.7547 61.6147H22.5716V56.0185C25.0746 56.0185 27.2607 54.3133 27.9492 51.9824C24.4734 47.5612 22.5716 42.0907 22.5716 36.4316C22.5716 22.5448 33.868 11.2484 47.7547 11.2484C61.6415 11.2484 72.9379 22.5448 72.9379 36.4316Z" fill="#337FF7"/>
<path d="M82.0038 48.5755C77.9186 60.2157 68.1251 69.0018 56.1491 71.744C55.3656 71.9677 54.582 72.1357 53.7991 72.2475L53.4609 70.1776C53.1561 68.3124 54.3171 66.5179 56.1448 66.0368C56.1463 66.0364 56.1476 66.036 56.1491 66.0356C64.3439 63.7218 71.2521 58.086 75.1195 50.4874C76.199 48.3664 78.6901 47.3768 80.9282 48.1864L82.0038 48.5755Z" fill="#FC73B4"/>
<path d="M82.0598 24.2876L80.9401 24.6793C78.7022 25.5189 76.2402 24.5116 75.1766 22.385C70.0929 12.5892 59.7973 5.65222 47.7547 5.65222C36.1141 5.65222 25.6497 12.0877 20.389 22.441C19.2694 24.5116 16.8074 25.4628 14.6254 24.6793L13.5058 24.2876C13.7293 23.672 13.9533 23.0566 14.2333 22.441C19.9417 8.78612 33.0927 0.0559626 47.7549 0C63.6932 0 77.1325 10.3564 82.0598 24.2876Z" fill="#FC73B4"/>
<path d="M18.7665 26.1905C19.214 24.9035 19.7734 23.616 20.389 22.4412H8.39438C3.74912 22.4412 0 26.1905 0 30.8355V42.0281C0 46.6728 3.74912 50.4224 8.39438 50.4224H19.8856L18.7105 46.7847C16.4159 39.7892 16.4711 32.6819 18.7665 26.1905Z" fill="#FC73B4"/>
<path d="M52.9371 66.7582C52.9149 66.7615 52.8915 66.7634 52.869 66.7634H52.8468C51.2242 67.0432 49.5459 67.2113 47.8107 67.2113C43.1654 67.2113 39.3604 70.9606 39.3604 75.6057C39.3604 80.2504 43.1095 84.0001 47.7547 84.0001C52.4 84.0001 56.1491 80.2504 56.1491 75.6057V66.0359C55.097 66.3127 54.0442 66.5899 52.9371 66.7582Z" fill="#FC73B4"/>
<path d="M33.7641 33.6335H39.3604V39.2298H33.7641V33.6335Z" fill="white"/>
<path d="M44.9566 33.6335H50.5529V39.2298H44.9566V33.6335Z" fill="white"/>
<path d="M56.1491 33.6335H61.7454V39.2298H56.1491V33.6335Z" fill="white"/>
<path d="M52.8578 66.7634H52.8468C51.2242 67.0432 49.5459 67.2113 47.8107 67.2113C47.7915 67.2113 47.7738 67.2167 47.7547 67.2167V84.0001C52.4 84.0001 56.1491 80.2504 56.1491 75.6057V66.0359C55.1011 66.3118 54.0518 66.5879 52.9494 66.7563C52.9193 66.761 52.8878 66.7634 52.8578 66.7634Z" fill="#FC73B4"/>
<path d="M82.0598 24.2876L80.9402 24.6793C78.7022 25.5189 76.2402 24.5116 75.1766 22.385C70.0929 12.5892 59.7973 5.65222 47.7547 5.65222V0C63.6932 0 77.1325 10.3564 82.0598 24.2876Z" fill="#FC73B4"/>
<path d="M47.7547 33.6335H50.5529V39.2298H47.7547V33.6335Z" fill="white"/>
<path d="M95.5095 30.8353C95.5095 26.1902 91.7603 22.4409 87.1151 22.4409H75.1766L76.7991 26.2464C77.4153 27.8691 77.8628 29.6039 78.1422 31.3388C78.9824 36.5433 78.4784 41.8597 76.7431 46.6725L75.1768 50.4222H87.1151C91.7603 50.4222 95.5095 46.6725 95.5095 42.0278V30.8353Z" fill="#FC73B4"/>
</svg>
