<svg width="174" height="240" viewBox="0 0 174 240" fill="none" xmlns="http://www.w3.org/2000/svg">
<path d="M86.1514 222.388C81.466 231.682 71.8747 236.298 62.4896 238.659C60.8781 239.14 60.0369 236.32 61.6483 235.839C69.9881 232.913 77.727 227.972 83.0125 220.692C84.1437 218.599 87.2819 220.295 86.1514 222.388Z" fill="#71CDCE"/>
<path d="M108.187 190.369C106.724 198.702 101.558 206.385 96.0314 212.859C94.7805 214.548 92.3279 212.209 93.6989 210.923C98.2996 204.286 101.331 196.801 104.886 189.598C106.017 187.506 108.512 188.517 108.187 190.369Z" fill="#71CDCE"/>
<path d="M124.462 159.631C126.145 165.27 123.233 173.158 120.286 177.986C119.155 180.078 116.017 178.382 117.148 176.29C118.561 173.675 119.452 170.777 119.939 167.999C120.427 165.221 120.391 162.161 121.282 159.263C121.727 157.814 124.102 158.422 124.462 159.631Z" fill="#71CDCE"/>
<path d="M120.56 114.939C121.521 118.162 121.274 121.746 121.833 125.089C122.229 129.357 123.027 133.506 122.498 137.613C122.293 139.867 119.232 139.903 119.034 137.768C118.759 133.902 117.96 129.754 117.281 126.008C116.722 122.665 115.521 118.636 116.694 115.215C116.898 112.961 119.959 112.926 120.56 114.939Z" fill="#71CDCE"/>
<path d="M113.892 77.8834C116.663 82.76 117.378 89.5662 118.657 95.3264C119.258 97.3407 116.438 98.1819 115.837 96.1676C113.752 90.6478 110.741 84.9655 110.267 78.965C110.069 76.8312 112.889 75.99 113.892 77.8834Z" fill="#71CDCE"/>
<path d="M100.702 41.0189C102.349 43.5986 102.787 46.5387 103.628 49.3594C104.47 52.1787 105.431 55.4022 105.87 58.3424C106.47 60.3567 103.248 61.3181 102.647 59.3038C101.805 56.4838 100.844 53.2603 99.5999 50.5612C98.7587 47.7412 97.5146 45.0414 97.4789 41.9804C96.9982 40.3689 99.4153 39.6479 100.702 41.0189Z" fill="#71CDCE"/>
<path d="M89.5187 7.94317C96.3182 11.618 102.715 15.413 108.828 19.7304C113.253 22.7975 121.099 27.0384 122.258 32.3957C122.859 34.4099 120.923 36.7424 118.548 36.1348C113.798 34.9194 109.699 30.0005 106.2 27.0958C101.655 23.6258 96.3046 20.3962 90.9541 17.1665C90.1348 26.1851 88.1069 35.5641 86.3617 44.4202C85.8742 47.1978 80.9621 46.9084 80.9264 43.8473C81.1448 32.8145 84.9466 22.0289 83.8362 10.9537C83.5182 8.41708 87.0236 6.93197 89.5187 7.94317Z" fill="#71CDCE"/>
</svg>
