<svg width="361" height="329" viewBox="0 0 361 329" fill="none" xmlns="http://www.w3.org/2000/svg">
<path d="M12.3747 278.172C22.211 267.95 24.0571 252.149 23.0927 239.268C23.0376 236.402 18.7394 236.485 18.7945 239.351C18.2159 246.528 16.9071 253.003 14.882 259.492C12.8431 265.264 10.074 270.334 8.03513 276.106C6.64371 278.283 10.2669 280.363 12.3747 278.172Z" fill="#71CDCE"/>
<path d="M72.9975 161.801C66.6053 164.791 60.9845 170.632 56.7965 176.445C51.8783 181.556 47.7041 188.086 44.2324 193.886C42.841 196.063 45.7478 198.157 47.1392 195.98C51.3273 190.167 56.2454 185.056 61.1774 180.661C66.0955 175.55 72.474 171.844 77.3921 166.733C80.2163 164.53 76.5518 160.301 72.9975 161.801Z" fill="#71CDCE"/>
<path d="M117.137 146.62C113.596 148.838 116.558 153.798 120.099 151.579C123.653 150.077 127.91 147.846 131.464 146.344C136.451 144.815 141.48 145.436 145.737 143.204C147.872 142.446 147.803 138.865 145.64 138.19C137.691 134.758 124.934 142.17 117.137 146.62Z" fill="#71CDCE"/>
<path d="M206.311 125.557C199.148 125.695 191.984 125.832 185.564 127.389C181.996 128.174 182.079 132.472 185.661 132.404C192.122 132.996 197.853 132.886 204.3 132.762C210.747 132.638 217.222 133.947 223.628 131.673C226.479 130.902 226.382 125.887 223.504 125.226C217.746 123.902 212.029 124.729 206.311 125.557Z" fill="#71CDCE"/>
<path d="M269.683 141.536C276.901 144.264 284.119 146.992 291.365 151.152C297.883 154.61 304.427 159.501 311.604 160.079C315.2 160.727 315.82 155.698 314.344 153.577C309.221 147.942 300.568 145.241 293.349 142.514C286.117 139.069 278.913 137.059 271.721 135.764C267.409 135.13 266.087 140.89 269.683 141.536Z" fill="#71CDCE"/>
<path d="M325.463 172.713C330.559 176.915 336.374 181.103 340.755 185.319C342.945 187.426 345.15 190.251 346.637 193.089C348.125 195.927 348.153 197.359 351.06 199.453C353.236 200.845 356.074 199.357 356.749 197.194C358.059 190.719 351.5 185.112 347.12 180.896C341.292 175.992 334.777 172.534 327.544 169.09C325.38 168.414 323.286 171.322 325.463 172.713Z" fill="#71CDCE"/>
<path d="M344.433 227.529C347.367 231.056 349.599 235.313 349.682 239.611C349.751 243.193 349.117 247.505 352.038 250.316C353.498 251.721 355.647 251.679 357.052 250.219C364.077 242.918 353.773 228.783 347.959 224.595C345.783 223.203 342.958 225.407 344.433 227.529Z" fill="#71CDCE"/>
<path d="M330.27 273.666C329.665 279.411 328.355 285.886 326.316 291.658C323.575 298.161 318.616 301.123 312.953 304.815C310.129 307.019 310.928 311.303 315.24 311.937C334.595 312.282 337.709 287.856 335.284 273.57C334.528 271.435 330.228 271.517 330.27 273.666Z" fill="#71CDCE"/>
<path d="M283.679 310.394C273.044 316.332 262.271 315.106 250.85 317.475C248 318.247 248.082 322.545 250.96 323.206C263.18 325.121 276.006 321.291 285.897 313.935C288.019 312.461 286.531 309.621 283.679 310.394Z" fill="#71CDCE"/>
<path d="M160.408 309.898C172.835 322.559 190.8 325.08 207.262 324.046C210.127 323.991 210.031 318.977 207.165 319.032C192.108 318.605 176.981 314.596 164.625 305.517C161.703 302.706 157.488 307.087 160.408 309.898Z" fill="#71CDCE"/>
<path d="M108.031 269.339C114.726 282.11 127.097 291.905 139.427 299.551C142.334 301.645 145.103 296.575 142.21 295.197C131.299 286.808 122.496 276.227 112.99 266.377C110.07 263.567 106.543 266.502 108.031 269.339Z" fill="#71CDCE"/>
<path d="M65.6685 227.874C65.8613 237.903 74.6782 249.199 81.9658 255.509C84.8864 258.319 89.102 253.938 86.1814 251.128C82.5307 247.615 79.5826 243.372 77.3508 239.115C75.119 234.858 73.5899 229.871 70.6417 225.628C69.1676 223.506 65.6271 225.724 65.6685 227.874Z" fill="#71CDCE"/>
<path d="M33.7349 132.457C33.8451 138.188 36.1045 143.878 36.931 149.595C38.5015 156.731 39.3557 163.881 42.3451 170.273C43.8467 173.828 48.8338 172.299 48.0485 168.731C46.4918 162.311 45.6377 155.161 44.7973 148.727C43.9708 143.01 43.833 135.846 40.1547 130.901C38.6531 127.346 33.6661 128.877 33.7349 132.457Z" fill="#71CDCE"/>
<path d="M15.3274 75.7541C15.6741 85.3072 20.7308 95.8178 24.0312 105.317C24.9628 108.777 29.8057 107.472 28.8741 104.013C26.9575 94.1409 26.2382 83.2042 21.5541 74.0772C19.9309 70.8054 15.088 72.1096 15.3274 75.7541Z" fill="#71CDCE"/>
<path d="M1.45873 10.48C1.37928 15.6956 3.3754 20.3523 4.67996 25.1964C5.98392 30.0383 7.4748 35.5742 9.47092 40.2309C10.4025 43.6901 15.9374 42.1996 15.0057 38.7403C13.7015 33.8973 12.2106 28.3614 11.5985 23.3332C10.2942 18.4902 9.68183 13.4609 6.99356 8.98944C6.24826 6.22203 2.09715 7.33996 1.45873 10.48Z" fill="#71CDCE"/>
</svg>
