<svg width="149" height="145" viewBox="0 0 149 145" fill="none" xmlns="http://www.w3.org/2000/svg">
<g clip-path="url(#clip0)">
<path d="M114.499 131.295C118.545 132.929 123.601 131.924 127.852 132.09C128.901 132.237 129.344 130.589 128.116 130.204C123.952 129.409 118.892 128.916 114.762 129.408C113.865 129.711 113.689 130.969 114.499 131.295Z" fill="#71CDCE"/>
<path d="M90.1323 122.124C92.6576 125.468 97.1819 126.741 100.985 127.058C101.823 127.175 101.999 125.917 101.16 125.8C99.0931 125.298 97.2648 124.615 95.4659 123.723C93.8765 122.86 92.5261 121.816 90.9368 120.953C90.3664 120.446 89.5912 121.407 90.1323 122.124Z" fill="#71CDCE"/>
<path d="M70.402 102.699C70.9772 104.703 72.4202 106.614 73.9218 108.106C75.1844 109.778 76.8956 111.3 78.4265 112.582C78.9969 113.089 79.7428 112.338 79.1724 111.831C77.6709 110.339 76.4082 108.667 75.3552 107.024C74.0925 105.352 73.3077 103.319 72.045 101.646C71.5335 100.72 70.1294 101.593 70.402 102.699Z" fill="#71CDCE"/>
<path d="M68.0234 89.1166C68.506 90.2526 70.0908 89.6189 69.6079 88.4829C69.3349 87.3762 68.8815 86.0306 68.6086 84.9239C68.3941 83.3979 68.8089 81.9597 68.3555 80.6141C68.2337 79.9559 67.1855 79.8096 66.8881 80.4093C65.5177 82.569 67.0874 86.6351 68.0234 89.1166Z" fill="#71CDCE"/>
<path d="M70.8013 70.1808C72.4907 68.65 74.18 67.1195 76.2498 65.7745C78.0367 64.5264 80.2039 63.4644 81.3227 61.6551C81.9772 60.7969 80.7385 59.9567 79.982 60.0589C77.8104 60.6473 75.9348 62.5586 74.2457 64.0896C72.3658 65.5273 70.8671 67.1508 69.5581 68.8673C68.8108 69.9157 70.1471 71.0392 70.8013 70.1808Z" fill="#71CDCE"/>
<path d="M86.5111 59.7126C88.3022 58.9385 90.1865 57.9736 91.8849 57.3894C92.7341 57.0973 93.7735 56.898 94.7201 56.889C95.6667 56.88 96.0471 57.0657 96.9892 56.5834C97.6482 56.1984 97.6392 55.2518 97.1614 54.7831C95.6352 53.5667 93.2777 54.5361 91.5793 55.1203C89.5049 55.9921 87.7183 57.2395 85.8387 58.6774C85.3694 59.1553 85.8521 60.0976 86.5111 59.7126Z" fill="#71CDCE"/>
<path d="M103.479 62.1066C104.802 61.81 106.222 61.7965 107.363 62.3536C108.314 62.8179 109.362 63.5652 110.495 63.1757C111.061 62.981 111.339 62.4103 111.145 61.8442C110.171 59.0138 105.067 59.8195 103.183 60.7844C102.523 61.1689 102.722 62.2087 103.479 62.1066Z" fill="#71CDCE"/>
<path d="M113.703 72.0443C115.132 72.977 116.658 74.1934 117.901 75.5069C119.242 77.1031 119.353 78.8061 119.561 80.7924C119.76 81.8318 120.994 82.1987 121.742 81.1503C124.439 76.1073 118.436 71.9992 114.353 70.7128C113.69 70.6241 113.132 71.7657 113.703 72.0443Z" fill="#71CDCE"/>
<path d="M115.188 89.6063C113.732 92.8967 110.97 94.5201 108.695 97.1075C108.159 97.7957 108.941 98.7959 109.738 98.441C112.963 96.7233 115.312 93.5417 116.341 90.0484C116.58 89.3237 115.724 88.9176 115.188 89.6063Z" fill="#71CDCE"/>
<path d="M89.338 107.907C92.2729 108.317 95.9782 106.269 98.1576 104.436C99.1132 103.715 98.0309 102.281 97.0753 103.003C95.8808 103.905 94.5059 104.568 93.1603 105.021C91.8147 105.474 90.2887 105.689 88.9139 106.352C88.2264 106.683 88.709 107.819 89.338 107.907Z" fill="#71CDCE"/>
<path d="M60.0171 112.791C61.6942 113.025 63.4591 112.63 65.1655 112.655C67.3204 112.528 69.446 112.611 71.4498 112.036C72.5565 111.763 72.3421 110.237 71.2646 110.3C69.3193 110.456 67.1937 110.373 65.2777 110.32C63.5713 110.295 61.4749 110.002 59.8612 110.846C58.7544 111.119 58.9692 112.645 60.0171 112.791Z" fill="#71CDCE"/>
<path d="M41.0667 112.283C43.7043 113.293 47.1463 113.132 50.1105 113.332C51.1587 113.478 51.3635 112.011 50.3153 111.864C47.4096 111.245 44.3528 110.177 41.3301 110.397C40.253 110.46 40.0481 111.927 41.0667 112.283Z" fill="#71CDCE"/>
<path d="M21.7166 108.514C23.1255 109.138 24.6223 109.133 26.0901 109.338C27.5572 109.543 29.2347 109.777 30.7314 109.772C31.7796 109.919 32.0137 108.242 30.9655 108.095C29.498 107.89 27.8205 107.656 26.3827 107.242C24.9152 107.037 23.477 106.623 21.9506 106.837C21.1121 106.72 20.9365 107.978 21.7166 108.514Z" fill="#71CDCE"/>
<path d="M4.40472 105.457C6.74965 108.562 9.12385 111.458 11.7366 114.174C13.5989 116.144 16.3049 119.727 19.0595 119.898C20.1077 120.044 21.1218 118.904 20.6392 117.768C19.674 115.496 16.9146 113.828 15.2034 112.307C13.1314 110.308 11.118 107.89 9.10456 105.471C13.5314 104.38 18.0461 102.659 22.3218 101.118C23.6674 100.665 23.1507 98.2419 21.6244 98.4563C16.1493 99.4019 11.0691 102.112 5.47219 102.4C4.18543 102.434 3.71212 104.291 4.40472 105.457Z" fill="#71CDCE"/>
</g>
<path d="M133.676 132.096C137.723 133.729 142.779 132.725 147.03 132.891C148.078 133.037 148.522 131.389 147.293 131.004C143.13 130.209 138.069 129.717 133.94 130.209C133.042 130.511 132.867 131.769 133.676 132.096Z" fill="#71CDCE"/>
<defs>
<clipPath id="clip0">
<rect width="127.327" height="127.327" fill="white" transform="translate(126.991 144.591) rotate(-172.054)"/>
</clipPath>
</defs>
</svg>
