<svg width="367" height="431" viewBox="0 0 367 431" fill="none" xmlns="http://www.w3.org/2000/svg">
<path d="M360.269 48.1005C363.852 33.7705 358.12 17.2909 356.687 2.96083C356.687 -0.621682 350.954 -1.33819 350.238 2.96083C349.521 17.2909 350.238 34.487 353.821 48.1005C355.254 50.9677 359.553 50.9677 360.269 48.1005Z" fill="#71CDCE"/>
<path d="M340.923 134.081C350.954 124.05 353.104 108.287 352.387 95.3897C352.387 92.5237 348.088 92.5237 348.088 95.3897C347.372 102.555 345.939 109.003 343.789 115.452C341.64 121.184 338.774 126.199 336.624 131.931C335.191 134.081 338.774 136.23 340.923 134.081Z" fill="#71CDCE"/>
<path d="M285.036 209.315C291.485 206.449 297.217 200.717 301.516 194.985C306.531 189.969 310.83 183.521 314.413 177.789C315.846 175.639 312.98 173.49 311.547 175.639C307.248 181.371 302.232 186.387 297.217 190.686C292.201 195.701 285.753 199.284 280.737 204.299C277.871 206.448 281.454 210.747 285.036 209.315Z" fill="#71CDCE"/>
<path d="M240.613 223.645C244.196 221.495 241.33 216.479 237.747 218.629C234.165 220.062 229.865 222.212 226.283 223.645C221.267 225.078 216.252 224.36 211.953 226.51C209.803 227.226 209.803 230.809 211.953 231.525C219.834 235.109 232.732 227.944 240.613 223.645Z" fill="#71CDCE"/>
<path d="M151.05 242.989C158.215 242.989 165.38 242.989 171.829 241.556C175.411 240.84 175.411 236.541 171.829 236.541C165.38 235.824 159.648 235.824 153.2 235.824C146.751 235.824 140.303 234.391 133.854 236.541C130.989 237.257 130.989 242.273 133.854 242.989C139.586 244.424 145.318 243.707 151.05 242.989Z" fill="#71CDCE"/>
<path d="M87.9979 225.794C80.8329 222.928 73.669 220.062 66.5039 215.763C60.0542 212.181 53.6057 207.165 46.4407 206.449C42.8581 205.732 42.1417 210.748 43.5758 212.897C48.5902 218.629 57.1894 221.497 64.3544 224.361C71.5195 227.945 78.6833 230.093 85.8484 231.526C90.1474 232.243 91.5804 226.51 87.9979 225.794Z" fill="#71CDCE"/>
<path d="M32.8271 193.551C27.8128 189.252 22.0795 184.953 17.7805 180.654C15.631 178.504 13.4815 175.638 12.0485 172.772C10.6155 169.906 10.6155 168.473 7.74946 166.324C5.59995 164.891 2.73393 166.324 2.01743 168.473C0.583248 174.922 7.03295 180.654 11.332 184.953C17.064 189.968 23.5114 193.551 30.6764 197.133C32.8271 197.851 34.9766 194.984 32.8271 193.551Z" fill="#71CDCE"/>
<path d="M14.9145 138.38C12.0485 134.797 9.89899 130.498 9.89899 126.199C9.89899 122.617 10.6155 118.318 7.74949 115.452C6.31649 114.019 4.167 114.019 2.734 115.452C-4.42983 122.617 5.6 136.947 11.3332 141.246C13.4815 142.68 16.3487 140.531 14.9145 138.38Z" fill="#71CDCE"/>
<path d="M29.9623 92.5237C30.6776 86.7917 32.1118 80.3432 34.2613 74.6111C37.1262 68.1626 42.1417 65.2966 47.8749 61.7141C50.7409 59.5646 50.0244 55.2655 45.7254 54.549C26.3798 53.8325 22.7973 78.1936 24.9468 92.5237C25.6621 94.6732 29.9623 94.6732 29.9623 92.5237Z" fill="#71CDCE"/>
<path d="M77.2503 56.6986C87.9978 50.9665 98.7454 52.3995 110.209 50.25C113.074 49.5335 113.074 45.2345 110.209 44.518C98.0289 42.3685 85.1318 45.951 75.1008 53.116C72.9513 54.5491 74.3843 57.4162 77.2503 56.6986Z" fill="#71CDCE"/>
<path d="M200.489 59.5646C188.308 46.6675 170.395 43.8015 153.916 44.518C151.05 44.518 151.05 49.5335 153.916 49.5335C168.963 50.25 184.009 54.5491 196.189 63.8636C199.056 66.7308 203.355 62.4318 200.489 59.5646Z" fill="#71CDCE"/>
<path d="M252.077 101.123C245.629 88.2259 233.448 78.1948 221.267 70.3133C218.401 68.1638 215.535 73.1793 218.401 74.6123C229.149 83.2103 237.747 93.9579 247.062 103.989C249.928 106.855 253.51 103.988 252.077 101.123Z" fill="#71CDCE"/>
<path d="M293.634 143.395C293.634 133.364 285.036 121.9 277.871 115.452C275.005 112.586 270.706 116.885 273.572 119.751C277.155 123.333 280.021 127.632 282.17 131.931C284.32 136.23 285.753 141.246 288.619 145.545C290.052 147.694 293.634 145.545 293.634 143.395Z" fill="#71CDCE"/>
<path d="M323.727 239.408C323.727 233.676 321.578 227.944 320.861 222.212C319.428 215.047 318.712 207.882 315.846 201.433C314.413 197.851 309.397 199.284 310.114 202.866C311.547 209.315 312.263 216.48 312.98 222.928C313.696 228.66 313.696 235.826 317.279 240.841C318.712 244.424 323.727 242.989 323.727 239.408Z" fill="#71CDCE"/>
<path d="M330.892 303.177C333.042 293.862 330.892 282.398 330.176 272.367C330.176 268.785 325.16 268.785 325.16 272.367C324.444 282.398 322.294 293.146 324.444 303.177C325.16 306.758 330.176 306.758 330.892 303.177Z" fill="#71CDCE"/>
<path d="M327.31 369.812C328.743 364.796 328.026 359.781 328.026 354.764C328.026 349.749 328.026 344.016 327.31 339.001C327.31 335.418 321.578 335.418 321.578 339.001C321.578 344.016 321.578 349.749 320.861 354.764C320.861 359.779 320.145 364.795 321.578 369.812C321.578 372.678 325.877 372.678 327.31 369.812Z" fill="#71CDCE"/>
<path d="M325.16 429.28C334.475 419.966 343.073 410.651 350.954 400.621C356.687 393.456 367.434 382.707 366.718 373.393C366.718 369.81 362.419 366.944 358.836 369.094C351.671 373.393 347.372 383.424 343.073 389.872C337.341 397.754 330.176 405.636 323.011 413.517C317.279 399.187 309.397 384.857 302.232 371.243C300.083 366.944 292.201 369.81 293.634 374.827C299.366 392.74 310.83 408.503 314.413 427.132C315.129 431.43 321.578 432.147 325.16 429.28Z" fill="#71CDCE"/>
</svg>
